<?xml version="1.0" encoding="utf-8"?>
<!-- Generator: Adobe Illustrator 24.1.0, SVG Export Plug-In . SVG Version: 6.00 Build 0)  -->
<svg version="1.1" id="Layer_1" xmlns="http://www.w3.org/2000/svg" xmlns:xlink="http://www.w3.org/1999/xlink" x="0px" y="0px"
	 viewBox="0 0 364.45 460.5" style="enable-background:new 0 0 364.45 460.5;" xml:space="preserve">
<style type="text/css">
	.st0{fill:none;stroke:#333333;stroke-width:2;stroke-miterlimit:10;}
</style>
<path class="st0" d="M182,1c20,0,19.5,18.5,19.5,18.5c0,27,155.5,86.5,159,88s3.61,5.03,1.78,8.5
	c-8.07,15.27-45.11,77.9-124.18,99.85c0,0-3.05,0.81-3.32,2.67c-0.38,2.6-27.27,233.45-27.88,237.47c-0.27,1.76-0.27,2.84-3.35,2.97
	c-14.18,0.56-16.1,0.53-21.37,0.53c-5.27,0-7.19,0.03-21.37-0.53c-3.08-0.12-3.09-1.2-3.35-2.97
	c-0.61-4.03-27.5-234.88-27.88-237.47c-0.27-1.86-3.32-2.69-3.32-2.69h0C47.25,193.86,10.24,131.27,2.18,116
	c-1.83-3.47-1.72-7,1.78-8.5s159-61,159-88c0,0-0.5-18.5,19.5-18.5"/>
</svg>
